<svg height="438" viewBox="0 0 1083 438" width="1083" xmlns="http://www.w3.org/2000/svg" xmlns:xlink="http://www.w3.org/1999/xlink"><filter id="a" height="105.6%" width="102.3%" x="-1.1%" y="-2.8%"><feOffset dx="0" dy="2" in="SourceAlpha" result="shadowOffsetOuter1"/><feGaussianBlur in="shadowOffsetOuter1" result="shadowBlurOuter1" stdDeviation="2"/><feColorMatrix in="shadowBlurOuter1" result="shadowMatrixOuter1" type="matrix" values="0 0 0 0 0   0 0 0 0 0   0 0 0 0 0  0 0 0 0.5 0"/><feMerge><feMergeNode in="shadowMatrixOuter1"/><feMergeNode in="SourceGraphic"/></feMerge></filter><g fill="none" fill-rule="evenodd" filter="url(#a)" transform="translate(4 2)"><ellipse cx="540.64346" cy="394.3094" fill="#f2f2f2" fill-rule="nonzero" rx="527.5" ry="34.9216"/><path d="m520.42569 12.00974c-85.94407 0-147.651 55.13938-147.651 183.79791 0 145.813 61.70691 184.41057 147.651 184.41057s151.327-42.27352 151.327-184.41057c0-151.9396-65.38293-183.79791-151.327-183.79791zm.56495 319.80837c-59.52686 0-90.62592-34.92288-90.62592-135.9163 0-89.11185 32.37209-136.10461 91.899-136.10461s91.899 30.86774 91.899 136.10461c0 98.44736-33.64522 135.9163-93.17208 135.9163z" fill="#2f2e41" fill-rule="nonzero"/><path d="m321.31131 278.51671h-35.53431v-104.63938c-.000011-11.573581-9.382249-20.955819-20.95583-20.95583h-8.32638c-5.557839-.000003-10.888044 2.207838-14.81803 6.137823-3.929986 3.929984-6.13783 9.260188-6.13783 14.818027v104.63936h-100.23008c-4.193974.000005-8.081693-2.196196-10.246458-5.7883-2.164764-3.592104-2.290418-8.055497-.331172-11.7637l106.0824-200.78034c2.672579-5.0583742 3.1609-10.9894977 1.351633-16.4168709-1.809268-5.4273732-5.758809-9.8790923-10.932013-12.3219991l-6.26231-2.9572c-10.099237-4.7690844-22.164046-.7796128-27.4293 9.07005l-129.38147 242.03255c-2.203188 4.121475-3.35584 8.722728-3.35584 13.39612 0 7.536348 2.9938034 14.764027 8.3228074 20.09303 5.3290041 5.329002 12.5566842 8.322803 20.0930326 8.3228h152.31877v66.16727c0 6.661973 2.646458 13.051089 7.357185 17.761815 4.710726 4.710727 11.099842 7.357185 17.761815 7.357185 6.662023 0 13.051139-2.646458 17.761865-7.357185 4.710727-4.710726 7.357185-11.099842 7.357185-17.761815v-66.16723h35.53428c11.842681 0 21.44307-9.600389 21.44307-21.44307 0-11.842677-9.600343-21.443082-21.44302-21.44311z" fill="#2980b9" fill-rule="nonzero"/><path d="m943.77355 278.51671v-104.63938c-.000011-11.573592-9.382268-20.955836-20.95586-20.95583h-8.32638c-5.557839-.000003-10.888044 2.207838-14.81803 6.137823-3.929986 3.929984-6.13783 9.260188-6.13783 14.818027v104.63936h-100.23008c-4.193976.000011-8.0817-2.196189-10.246466-5.788295-2.164765-3.592106-2.290416-8.055502-.331164-11.763705l106.08239-200.7803c2.67259-5.0583773 3.160918-10.9895088 1.351652-16.4168907-1.809266-5.427382-5.758811-9.8791091-10.932022-12.3220193l-6.26231-2.9572c-10.09924-4.7690854-22.164052-.7796141-27.42931 9.07005l-129.38146 242.03255c-2.203188 4.121475-3.35584 8.722728-3.35584 13.39612 0 15.69363 12.7222 28.41583 28.41583 28.41583h152.31878v66.16727c0 13.872841 11.246159 25.119 25.119 25.119s25.119-11.246159 25.119-25.119v-66.16723h35.53428c11.842681 0 21.44307-9.600389 21.44307-21.44307 0-11.842657-9.600313-21.443055-21.44297-21.44311z" fill="#2980b9" fill-rule="nonzero"/><path d="m331.11387 266.2635h-35.53429v-104.63936c.000003-5.557839-2.207838-10.888044-6.137823-14.81803-3.929984-3.929986-9.260188-6.13783-14.818027-6.13783h-8.32638c-11.573602 0-20.95586 9.382258-20.95586 20.95586v104.63936h-100.23008c-4.193974.000005-8.081693-2.196196-10.246458-5.7883-2.164764-3.592104-2.290418-8.055497-.331172-11.7637l106.08239-200.78028c2.672597-5.0583792 3.160928-10.9895157 1.351662-16.4169026s-5.758816-9.8791174-10.932032-12.3220274l-6.26231-2.9572c-10.099227-4.7690932-22.164034-.7796454-27.42931 9.07l-129.38146 242.03261c-2.2031881 4.121478-3.35584 8.722735-3.35584 13.39613 0 15.69363 12.7222004 28.41583 28.41583 28.41583h152.31878v66.16727c0 6.661973 2.646458 13.051089 7.357185 17.761815 4.710726 4.710727 11.099842 7.357185 17.761815 7.357185h.00005c13.872841 0 25.119-11.246159 25.119-25.119v-66.16723h35.53429c5.687056 0 11.141185-2.259174 15.16254-6.28053 4.021356-4.021355 6.28053-9.475484 6.28053-15.16254 0-5.687059-2.259146-11.141197-6.280494-15.162565-4.021349-4.021367-9.475477-6.280554-15.162536-6.280565z" stroke="#3f3d56"/><path d="m997.68762 266.2635h-35.53428v-104.63936c0-11.573602-9.382258-20.95586-20.95586-20.95586h-8.32638c-5.55784 0-10.888045 2.207843-14.818031 6.137829s-6.137829 9.260191-6.137829 14.818031v104.63936h-100.23008c-4.193974.000005-8.081693-2.196196-10.246458-5.7883-2.164764-3.592104-2.290418-8.055497-.331172-11.7637l106.08239-200.78028c2.672597-5.0583792 3.160928-10.9895157 1.351662-16.4169026s-5.758816-9.8791174-10.932032-12.3220274l-6.26231-2.9572c-10.099227-4.7690932-22.164034-.7796454-27.42931 9.07l-129.38146 242.03261c-2.203188 4.121478-3.35584 8.722735-3.35584 13.39613 0 15.69363 12.7222 28.41583 28.41583 28.41583h152.31878v66.16727c0 13.872841 11.246159 25.119 25.119 25.119 13.872841 0 25.119-11.246159 25.119-25.119v-66.16723h35.53428c5.68706 0 11.14118-2.259174 15.16254-6.28053 4.02136-4.021355 6.28053-9.475484 6.28053-15.16254 0-11.842665-9.60031-21.443075-21.44297-21.44313z" stroke="#3f3d56"/><path d="m540.0308.98187c-85.94407 0-147.651 55.13937-147.651 183.79791 0 145.813 61.70691 184.41057 147.651 184.41057s151.327-42.27352 151.327-184.41057c0-151.93961-65.38293-183.79791-151.327-183.79791zm.565 319.80836c-59.52686 0-90.62592-34.92287-90.62592-135.91629 0-89.11185 32.37209-136.10461 91.899-136.10461s91.899 30.86774 91.899 136.10461c0 98.44735-33.64527 135.91629-93.17213 135.91629z" stroke="#3f3d56"/><path d="m1006.86381 264.54964c8.30702 3.019912 17.6154.463429 23.21468-6.375753 5.59929-6.839181 6.26796-16.469055 1.66764-24.016468s-13.46605-11.365854-22.11072-9.523019l.52093 10.7122-5.06814-9.18045c-4.9741 2.337184-8.816806 6.553576-10.68367 11.72261-.662997 1.810644-1.066047 3.70611-1.19713 5.62986-.657347 9.273973 4.917122 17.858715 13.65641 21.03102z" fill="#57b894" fill-rule="nonzero"/><path d="m1031.94116 388.79306c-1.78906-9.11027 5.9633-17.1868 13.62086-22.43651s16.605-10.40779 19.21775-19.31684c3.755-12.80387-7.43-24.52981-16.13564-34.64176-6.45875-7.504216-12.0053-15.747509-16.52359-24.55738-1.81107-3.5325-3.47558-7.22528-3.95221-11.16626-.68641-5.67546 1.13693-11.32309 2.9739-16.73673 6.1195-18.03446 12.66231-35.91781 19.62843-53.65005" stroke="#3f3d56"/><path d="m1007.72093 261.7917c8.30702 3.019912 17.6154.463429 23.21468-6.375753 5.59929-6.839181 6.26796-16.469055 1.66764-24.016468s-13.46605-11.365854-22.11072-9.523019l.52093 10.7122-5.06815-9.18045c-4.9741 2.337186-8.816798 6.553578-10.68366 11.72261-.662997 1.810644-1.066047 3.70611-1.19713 5.62986-.65735 9.273974 4.917119 17.858718 13.65641 21.03102z" stroke="#3f3d56"/><path d="m1029.39736 202.58816c2.41591-6.665959 8.06269-11.6409 14.97993-13.19764l1.71361 10.18378 3.177-10.69566c9.05107.134224 16.9772 6.104038 19.60516 14.766233 2.62796 8.662196-.64512 18.029653-8.09589 23.170249-7.45078 5.140596-17.37004 4.87507-24.53513-.656773s-9.93232-15.060992-6.84471-23.570189z" fill="#57b894" fill-rule="nonzero"/><path d="m1030.54018 198.9109c2.41591-6.665954 8.0627-11.64089 14.97993-13.19763l1.71361 10.18378 3.177-10.69567c9.05107.134224 16.9772 6.104038 19.60516 14.766233 2.62796 8.662196-.64512 18.029653-8.09589 23.170249-7.45078 5.140596-17.37004 4.87507-24.53513-.656773s-9.93232-15.060992-6.84471-23.570189z" stroke="#3f3d56"/><path d="m1044.99074 312.60435c9.94565 3.607666 21.01523-.821167 25.72773-10.293416 4.7125-9.472248 1.56786-20.972746-7.30873-26.729254l-2.44121 8.21926-1.73105-10.30382c-.01711-.008076-.03483-.014796-.053-.0201-6.99069-2.540656-14.80587-1.157212-20.49958 3.628839-5.69372 4.786052-8.40024 12.246993-7.09935 19.570404 1.3009 7.323412 6.41141 13.395771 13.40513 15.928087z" fill="#57b894" fill-rule="nonzero"/><path d="m1045.981 308.87967c9.94565 3.607666 21.01523-.821167 25.72773-10.293416 4.7125-9.472248 1.56786-20.972746-7.30873-26.729254l-2.44121 8.21926-1.73105-10.30382c-.01711-.008075-.03484-.014795-.053-.0201-6.99069-2.540656-14.80587-1.157212-20.49958 3.628839-5.69372 4.786052-8.40024 12.246993-7.09935 19.570404 1.3009 7.323412 6.41141 13.395771 13.40513 15.928087z" stroke="#3f3d56"/><path d="m1023.32382 347.16698c1.70244 9.687178 9.95716 16.857999 19.78722 17.189042 9.83006.331042 18.5485-6.268183 20.89881-15.818878s-2.30996-19.442253-11.17103-23.710867c-8.86108-4.268615-19.50086-1.747493-25.50442 6.043333l9.27267 13.95654-12.66994-7.40768c-.98239 3.153459-1.19273 6.496793-.61331 9.74851z" fill="#57b894" fill-rule="nonzero"/><path d="m1024.18094 344.40904c1.70244 9.687178 9.95716 16.857999 19.78722 17.189042 9.83006.331042 18.5485-6.268183 20.89881-15.818878s-2.30996-19.442253-11.17103-23.710867c-8.86108-4.268615-19.50086-1.747493-25.50442 6.043333l9.27267 13.95655-12.66994-7.40769c-.98239 3.153458-1.19273 6.496793-.61331 9.74851z" stroke="#3f3d56"/><path d="m9.00746 315.24875c5.45787 1.984183 11.5736837.304548 15.2525425-4.188927 3.6788587-4.493476 4.1181924-10.820509 1.0956768-15.779312-3.0225156-4.958802-8.8474964-7.467577-14.5272193-6.256761l.34227 7.03811-3.32987-6.03172c-3.26807723 1.535582-5.7928032 4.30584-7.01936 7.702-.43560191 1.189629-.70041482 2.434988-.78654 3.69893-.43185279 6.093137 3.2306631 11.733424 8.9725 13.81768z" fill="#57b894" fill-rule="nonzero"/><path d="m25.48374 396.87894c-1.17545-5.98561 3.918-11.292 8.94915-14.7412s10.90978-6.8381 12.62642-12.69151c2.46711-8.41238-4.88167-16.11653-10.60142-22.76027-4.2435166-4.930407-7.8876993-10.346402-10.85629-16.13465-1.2906096-2.273585-2.1696622-4.757183-2.59668-7.33643-.451-3.72888.747-7.43947 1.95391-10.99634 4.02062-11.848973 8.3193633-23.59866 12.89623-35.24906" stroke="#3f3d56"/><path d="m9.57061 313.43673c5.457863 1.984165 11.5736591.304524 15.2525059-4.188945s4.1181795-10.820486 1.0956747-15.779281c-3.0225047-4.958795-8.8474671-7.467573-14.5271806-6.256774l.34227 7.03812-3.32988-6.03177c-3.26807789 1.535581-5.79280416 4.30584-7.01936 7.702-.43559723 1.189627-.70041001 2.434982-.78654 3.69892-.43188143 6.093159 3.23064584 11.733478 8.97251 13.81773z" stroke="#3f3d56"/><path d="m23.81241 274.53893c1.5872946-4.379657 5.2973381-7.648284 9.84209-8.67109l1.12587 6.69093 2.08737-7.02725c5.9466975.088197 11.1542912 4.010468 12.8808991 9.701673 1.726608 5.691205-.4238555 11.845776-5.3191368 15.223232s-11.4123977 3.203006-16.1199822-.431501c-4.7075846-3.634506-6.5257125-9.895309-4.4971101-15.485994z" fill="#57b894" fill-rule="nonzero"/><path d="m24.56327 272.1229c1.5872974-4.379653 5.2973404-7.648276 9.84209-8.67108l1.12587 6.69093 2.08737-7.02725c5.9466981.088199 11.1542912 4.010472 12.8808971 9.701678s-.4238607 11.845777-5.3191443 15.223231c-4.8952835 3.377454-11.4124006 3.203-16.1199833-.43151s-6.5257064-9.895315-4.4970995-15.485999z" stroke="#3f3d56"/><path d="m34.05755 346.82157c6.5344777 2.370331 13.8074218-.539485 16.9036317-6.762937 3.0962098-6.223452 1.0301084-13.779507-4.8019917-17.561633l-1.60392 5.4002-1.13733-6.76979c-.0112376-.005302-.0228732-.009715-.0348-.0132-4.5932604-1.670285-9.728771-.761833-13.4702836 2.382841-3.7415126 3.144675-5.5199883 8.047305-4.6648861 12.859445s4.2137316 8.801922 8.8095797 10.465074z" fill="#57b894" fill-rule="nonzero"/><path d="m34.70814 344.37439c6.5344777 2.370331 13.8074218-.539485 16.9036317-6.762937 3.0962098-6.223452 1.0301084-13.779507-4.8019917-17.561633l-1.60392 5.4002-1.13733-6.7698c-.0112376-.005302-.0228732-.009715-.0348-.0132-7.0988942-2.575191-14.9412894 1.091996-17.51648 8.19089s1.0919958 14.941289 8.19089 17.51648z" stroke="#3f3d56"/><path d="m19.822 369.52985c1.1185483 6.364651 6.5420556 11.076001 13.0005872 11.293489 6.4585316.217487 12.1866976-4.118336 13.730879-10.393321 1.5441815-6.274985-1.5177118-12.773912-7.3396068-15.578457s-12.8124214-1.148105-16.7568594 3.970619l6.09231 9.16971-8.32438-4.867c-.6454383 2.071886-.7836265 4.268521-.40293 6.40496z" fill="#57b894" fill-rule="nonzero"/><path d="m20.38513 367.71783c1.1185483 6.364651 6.5420556 11.076001 13.0005872 11.293489 6.4585316.217487 12.1866976-4.118336 13.730879-10.393321 1.5441815-6.274985-1.5177118-12.773912-7.3396068-15.578457s-12.8124214-1.148105-16.7568594 3.970619l6.09231 9.16971-8.32439-4.867c-.6454349 2.071887-.7836198 4.268522-.40292 6.40496z" stroke="#3f3d56"/><ellipse cx="480.946" cy="164.1155" fill="#2f2e41" fill-rule="nonzero" rx="17" ry="22"/><ellipse cx="573.446" cy="164.6155" fill="#2f2e41" fill-rule="nonzero" rx="17" ry="22"/><path d="m560.446 229.6155c0 9.94-13.88 18-31 18s-31-8.06-31-18c0-8.61 10.41-15.81 24.32-17.57 2.214592-.292081 4.446238-.435734 6.68-.430264 3.742922-.011811 7.475671.390642 11.13 1.200264 11.62 2.59 19.87 9.14 19.87 16.8z" fill="#2f2e41" fill-rule="nonzero"/><ellipse cx="484.946" cy="159.1155" rx="17" ry="22" stroke="#3f3d56"/><ellipse cx="577.446" cy="159.6155" rx="17" ry="22" stroke="#3f3d56"/><ellipse cx="533.446" cy="224.6155" rx="31" ry="18" stroke="#3f3d56"/><g fill-rule="nonzero"><path d="m540.946103 214.3155c.007999 1.257524-.464123 2.470734-1.320103 3.392-.817299.892215-1.970043 1.402612-3.18 1.408h-10c-2.565198-.089298-4.576212-2.23438-4.5-4.8-.005219-.974972.280266-1.929376.82-2.74134 2.212938-.311434 4.445263-.46471 6.68-.45866 3.747418-.012343 7.483217.41729 11.13 1.28.246832.609904.372505 1.262047.370103 1.92z" fill="#fff"/><circle cx="484.946" cy="153.1155" fill="#fff" r="5"/><circle cx="577.946" cy="153.1155" fill="#fff" r="5"/><circle cx="582.946" cy="200.1155" fill="#6c63ff" opacity=".3" r="5"/><circle cx="460.946" cy="200.1155" fill="#6c63ff" opacity=".3" r="5"/></g></g></svg>