<?xml version="1.0" encoding="UTF-8"?>
<svg width="100px" height="93px" viewBox="0 0 100 93" version="1.1" fill="#F7B500" xmlns="http://www.w3.org/2000/svg" xmlns:xlink="http://www.w3.org/1999/xlink">
    <!-- Generator: Sketch 55.2 (78181) - https://sketchapp.com -->
    <title>sketch</title>
                <path d="M50,2.13995833 L78.125,30.5305 L78.125,5.34829167 L50,2.13995833 Z M50,2.13995833 L24.790625,32.0833333 L75.20625,32.0833333 L50,2.13995833 Z M50,2.13995833 L21.875,5.34829167 L21.875,30.5305 L50,2.13995833 Z M21.875,5.34829167 L0,35.2916667 L18.4,32.3817083 L21.875,5.34829167 Z M0,35.2916667 L49.828125,93.911125 L49.8625,93.8501667 L18.5125,35.2916667 L0,35.2916667 Z M78.125,5.34829167 L81.6,32.3849167 L100,35.294875 L78.125,5.34829167 Z M100,35.2916667 L81.225,35.2916667 L49.878125,93.853375 L50,94.1100417 L100,35.2916667 Z M22.65,35.2916667 L49.871875,93.8373333 L77.35,35.2916667 L22.65,35.2916667 Z" id="Shape"></path>
</svg>