<svg height="101" viewBox="0 0 100 101" width="100" xmlns="http://www.w3.org/2000/svg"><path d="m50 1.27617187c-27.625 0-50 23.08710933-50 51.56250003 0 22.7874023 14.325 42.1104492 34.1875 48.9199221 2.5.486621 3.415625-1.108594 3.415625-2.4782229 0-1.2246094-.040625-4.4698242-.0625-8.765625-13.909375 3.1098633-16.840625-6.919043-16.840625-6.919043-2.275-5.9522461-5.5625-7.5410156-5.5625-7.5410156-4.528125-3.196875.35-3.1324219.35-3.1324219 5.021875.3609375 7.659375 5.3109375 7.659375 5.3109375 4.459375 7.8858399 11.703125 5.6074219 14.5625 4.2893555.45-3.3354492 1.7375-5.6074219 3.165625-6.8964844-11.103125-1.2890625-22.775-5.7234375-22.775-25.4815429 0-5.6299805 1.9375-10.2254883 5.146875-13.8348633-.5625-1.3019532-2.25-6.5452149.4375-13.6479492 0 0 4.1875-1.3825196 13.75 5.2851562 4-1.1472656 8.25-1.7144531 12.5-1.7402344 4.25.0257813 8.5.5929688 12.5 1.7402344 9.5-6.6676758 13.6875-5.2851562 13.6875-5.2851562 2.6875 7.1027343 1 12.345996.5 13.6479492 3.1875 3.609375 5.125 8.2081054 5.125 13.8348633 0 19.8096679-11.6875 24.1699218-22.8125 25.4364257 1.75 1.546875 3.375 4.7083008 3.375 9.5390625 0 6.8997071-.0625 12.4426758-.0625 14.1184571 0 1.3535154.875 2.9648434 3.4375 2.4492184 20.003125-6.7643552 34.315625-26.1002927 34.315625-48.8522458 0-28.4753906-22.3875-51.56249998-50-51.56249998z"/></svg>