<?xml version="1.0" encoding="UTF-8"?>
<svg width="96px" height="110px" viewBox="0 0 100 115" version="1.1" fill="#E10098"  xmlns="http://www.w3.org/2000/svg" xmlns:xlink="http://www.w3.org/1999/xlink">
    <title>graphql</title>
                <path d="M59.1166667,15.9136364 L81.05,28.8681818 C84.6766667,24.9647727 90.7066667,24.8079545 94.5266667,28.5170455 C95.1833333,29.1545455 95.7433333,29.8840909 96.2033333,30.6852273 C98.82,35.3590909 97.2333333,41.3181818 92.6666667,43.9943182 C91.8933333,44.4477273 91.0633333,44.7886364 90.1866667,45.0068182 L90.1866667,70.9125 C95.28,72.1534091 98.4266667,77.3795455 97.21,82.5886364 C96.9966667,83.5159091 96.6466667,84.4056798 96.18,85.2306818 C93.55,89.8806818 87.73,91.4761364 83.17,88.7863636 C82.3,88.2715909 81.5033333,87.6102273 80.8333333,86.8363636 L59.0333333,99.7090909 C60.6866667,104.819318 57.9766667,110.321591 52.9833333,112.009091 C52.02,112.332955 51.02,112.500002 50.0066667,112.500002 C44.7566667,112.503409 40.5,108.160227 40.4966667,102.790909 C40.4966667,101.860227 40.6266667,100.926136 40.8866667,100.022727 L18.95,87.0818182 C15.3233333,90.9647727 9.3,91.1147727 5.5,87.3988636 C1.70333333,83.6897727 1.56333333,77.5295455 5.19,73.6431818 C6.44666667,72.2931818 8.06,71.3420455 9.83,70.9022727 L9.83333333,44.9965909 C4.72333333,43.7420455 1.57666667,38.4818182 2.80666667,33.2522727 C3.01666667,32.3522727 3.35333333,31.4829545 3.80333333,30.6784091 C6.43333333,26.025 12.2566667,24.4329545 16.8133333,27.1227273 C17.6,27.5829545 18.32,28.1590909 18.9466667,28.8375 L40.8933333,15.8829545 C39.4,10.7318182 42.2766667,5.32840909 47.2966667,3.80454545 C48.1733333,3.53522727 49.0933333,3.40567981 50.0066667,3.40567981 C55.2566667,3.40227273 59.5133333,7.74204545 59.5166667,13.1045455 C59.52,14.0556818 59.3833333,15.0034091 59.12,15.9102273 L59.1166667,15.9136364 Z M56.8266667,19.8988636 C56.7433333,19.9943182 56.6633333,20.0761364 56.57,20.1613636 L85.2866667,71.025 C85.4033333,70.9840909 85.5366667,70.9534091 85.65,70.9193182 L85.65,44.9795455 C80.56,43.6943182 77.4633333,38.4238636 78.7266667,33.2147727 C78.7533333,33.1056818 78.78,32.9931818 78.81,32.8875 L56.8266667,19.8988636 Z M43.4266667,20.1681818 L43.16,19.8954545 L21.1766667,32.8602273 C22.63,38.0181818 19.7233333,43.3977273 14.6833333,44.8840909 C14.5666667,44.9215909 14.4566667,44.9488636 14.3466667,44.9795455 L14.3466667,70.9261364 L14.72,71.0318182 L43.4366667,20.1681818 L43.4266667,20.1681818 Z M52.6533333,22.4727273 C50.92,22.9806818 49.0833333,22.9806818 47.3566667,22.4727273 L18.6466667,73.3329545 C19.9533333,74.6181818 20.8766667,76.2647727 21.3133333,78.0647727 L78.6966667,78.0647727 C79.1266667,76.2545455 80.06,74.6045455 81.3766667,73.3193182 L52.6533333,22.4727273 Z M57.0366667,96.2318182 L78.8733333,83.3318182 C78.8066667,83.1170455 78.7533333,82.9056818 78.7033333,82.6875 L21.3,82.6875 L21.2066667,83.0659091 L43.1566667,96.0306818 C44.88,94.1931818 47.3066667,93.0613636 50,93.0613636 C52.7866667,93.0613636 55.29,94.2852273 57.0366667,96.2352273 L57.0366667,96.2318182 Z" id="Shape"></path>
</svg>