<?xml version="1.0" encoding="UTF-8"?>
<svg width="100px" height="104px" viewBox="0 0 100 104" version="1.1" xmlns="http://www.w3.org/2000/svg" xmlns:xlink="http://www.w3.org/1999/xlink">
    <!-- Generator: Sketch 55.2 (78181) - https://sketchapp.com -->
    <title>javascript</title>
    <desc>Created with Sketch.</desc>
    <g id="Page-2" stroke="none" stroke-width="1" fill="none" fill-rule="evenodd">
        <g id="Wireframe" transform="translate(-779.000000, -1294.000000)" fill="#F7DF1E" fill-rule="nonzero">
            <g id="javascript" transform="translate(779.000000, 1294.000000)">
                <path d="M0,0 L100,0 L100,103.125 L0,103.125 L0,0 Z M91.809375,78.5296875 C91.08125,73.8246094 88.109375,69.8704102 79.296875,66.1836914 C76.23125,64.7012695 72.821875,63.6700195 71.809375,61.2852539 C71.43125,59.8672852 71.371875,59.0938477 71.61875,58.255957 C72.24375,55.48125 75.43125,54.646582 77.93125,55.4200195 C79.55625,55.9356445 81.05625,57.224707 81.996875,59.287207 C86.30625,56.3835938 86.30625,56.3835938 89.309375,54.4532227 C88.184375,52.6485352 87.625,51.871875 86.86875,51.1016602 C84.24375,48.0723633 80.746875,46.5254883 75.059375,46.6576172 L72.121875,47.0411133 C69.30625,47.7500977 66.621875,49.2969727 64.996875,51.3594727 C60.246875,56.9056641 61.61875,66.5736328 67.36875,70.5697266 C73.05625,74.9525391 81.371875,75.9161133 82.434375,80.0443359 C83.434375,85.0716797 78.809375,86.6830078 74.24375,86.1029297 C70.865625,85.3294922 68.99375,83.5860352 66.93125,80.3633789 L59.30625,84.8783203 C60.18125,86.9408203 61.18125,87.8399414 62.68125,89.6446289 C69.93125,97.1888672 88.05625,96.8021484 91.309375,85.3294922 C91.43125,84.9427734 92.309375,82.3001953 91.61875,78.2396484 L91.809375,78.5296875 Z M54.378125,47.3988281 L45.0125,47.3988281 C45.0125,55.7261719 44.975,64.0019531 44.975,72.3421875 C44.975,77.6370117 45.2375,82.4967773 44.4,83.9920898 C43.025,86.9537109 39.484375,86.5734375 37.875,86.0545898 C36.225,85.2134766 35.3875,84.0533203 34.415625,82.3807617 C34.153125,81.9295898 33.95625,81.5396484 33.8875,81.5396484 L26.284375,86.3736328 C27.55625,89.0806641 29.409375,91.4106445 31.8,92.8930664 C35.3625,95.0844727 40.15,95.793457 45.1625,94.6333008 C48.425,93.6632813 51.2375,91.6652344 52.709375,88.5714844 C54.834375,84.5753906 54.384375,79.6769531 54.3625,74.1952148 C54.4125,65.3683594 54.3625,56.5382813 54.3625,47.64375 L54.378125,47.3988281 Z" id="Shape"></path>
            </g>
        </g>
    </g>
</svg>