<?xml version="1.0" encoding="UTF-8"?>
<svg width="425px" height="411px" viewBox="0 0 425 411" version="1.1" xmlns="http://www.w3.org/2000/svg" xmlns:xlink="http://www.w3.org/1999/xlink">
    <!-- Generator: Sketch 55.2 (78181) - https://sketchapp.com -->
    <title>Group 2</title>
    <desc>Created with Sketch.</desc>
    <g id="Page-1" stroke="none" stroke-width="1" fill="none" fill-rule="evenodd">
        <g id="Artboard" transform="translate(-338.000000, -133.000000)" fill-rule="nonzero">
            <g id="Group-2" transform="translate(545.222432, 352.071797) rotate(30.000000) translate(-545.222432, -352.071797) translate(369.722432, 167.571797)">
                <g id="Group" transform="translate(0.000000, 182.000000)" fill="#2980B9">
                    <path d="M72.6595577,58.9844696 L116.274092,15.7478284 C119.908636,12.1447749 119.908636,6.30534351 116.274092,2.70229008 C112.639547,-0.900763359 106.749078,-0.900763359 103.114534,2.70229008 L59.5,45.9389313 L15.885466,2.70229008 C12.2509215,-0.900763359 6.36045287,-0.900763359 2.72590837,2.70229008 C-0.908636124,6.30534351 -0.908636124,12.1447749 2.72590837,15.7478284 L46.3404423,58.9844696 L2.72590837,102.221111 C-0.908636124,105.824164 -0.908636124,111.663596 2.72590837,115.266649 C4.48051606,117.006054 6.86176935,118 9.24302264,118 C11.6242759,118 14.0055292,117.130297 15.7601369,115.266649 L59.5,72.0300079 L103.114534,115.266649 C104.869142,117.006054 107.250395,118 109.631648,118 C112.012902,118 114.394155,117.130297 116.148763,115.266649 C119.783307,111.663596 119.783307,105.824164 116.148763,102.221111 L72.6595577,58.9844696 Z" id="Path"></path>
                </g>
                <g id="Group" transform="translate(174.000000, 275.000000)" fill="#2980B9">
                    <path d="M63.9696774,46.5747619 L2.80451613,46.5747619 C1.75814424,46.5583161 0.807920606,45.9574343 0.339911708,45.0162487 C-0.128097189,44.0750631 -0.0360290781,42.9501581 0.578709677,42.0985714 L31.5174194,1.11904762 C32.042861,0.414590797 32.8674898,0 33.7432258,0 L33.7432258,0 C34.6237613,0.00167716297 35.4506531,0.425720302 35.9690323,1.14142857 L66.2177419,42.0761905 C66.8500469,42.9239184 66.951755,44.0581065 66.4804627,45.0058952 C66.0091705,45.9536838 65.0457771,46.552381 63.9919355,46.552381 L63.9696774,46.5747619 Z M8.48032258,40.9347619 L58.3606452,40.9347619 L33.7432258,7.54238095 L8.48032258,40.9347619 Z" id="Shape"></path>
                    <path d="M63.9696774,94 L2.80451613,94 C1.73612224,93.9864605 0.765076928,93.3729661 0.289354839,92.4109524 C-0.15179647,91.4686797 -0.0405451785,90.3586296 0.578709677,89.5238095 L31.5174194,48.5890476 C32.0495605,47.8927107 32.8699303,47.4802612 33.7432258,47.47 L33.7432258,47.47 C34.6237613,47.4716772 35.4506531,47.8957203 35.9690323,48.6114286 L66.2177419,89.5238095 C66.8563066,90.3781247 66.9597242,91.5219985 66.4848387,92.4780952 C65.990879,93.4140718 65.0234582,93.9994507 63.9696774,94 Z M8.48032258,88.337619 L58.3606452,88.337619 L33.7432258,54.9452381 L8.48032258,88.337619 Z" id="Shape"></path>
                </g>
                <g id="Group" transform="translate(284.000000, 50.000000)" fill="#2980B9">
                    <path d="M62.5333333,4.46666667 L62.5333333,62.5333333 L4.46666667,62.5333333 L4.46666667,4.46666667 L62.5333333,4.46666667 L62.5333333,4.46666667 Z M62.8236667,-2.08721929e-16 L4.19866667,-2.08721929e-16 C1.8798071,-2.08721929e-16 0,1.8798071 0,4.19866667 L0,62.8236667 C0.0122881157,65.1337998 1.88850088,67 4.19866667,67 L62.8236667,67 C65.1301919,67 67,65.1301919 67,62.8236667 L67,4.19866667 C67,1.88850088 65.1337998,0.0122881157 62.8236667,-2.08721929e-16 Z" id="Shape"></path>
                </g>
                <g id="Group" transform="translate(146.000000, 96.000000)" stroke="#2980B9" stroke-width="2">
                    <polygon id="Path" points="55.8846154 47.034 28 62.57025 0.115384615 47.034 0.115384615 15.96375 28 0.4275 55.8846154 15.96375"></polygon>
                </g>
                <g id="Group" transform="translate(54.246134, 0.846788)" fill="#2980B9">
                    <path d="M64.1954839,100.057333 C63.318349,100.041681 62.4972741,99.6194266 61.9696774,98.9126667 L33.9690323,60.8917778 L5.2783871,99.0473333 C4.68591377,99.8942706 3.68145333,100.346539 2.66058075,100.226027 C1.63970816,100.105514 0.766000893,99.4315314 0.3835409,98.4695048 C0.0010809082,97.5074783 0.171150901,96.4115564 0.826774194,95.6133333 L31.7654839,54.5624444 C32.3098297,53.87922 33.122642,53.4694107 33.9912903,53.4402222 C34.8718258,53.4419041 35.6987177,53.8671502 36.2170968,54.5848889 L66.4435484,95.5235556 C67.0416247,96.3810671 67.1246372,97.5004167 66.6596943,98.438089 C66.1947514,99.3757613 65.2569003,99.980405 64.2177419,100.012444 L64.1954839,100.057333 Z" id="Path"></path>
                    <path d="M33.2345161,46.7293333 L33.2345161,46.7293333 C32.3535054,46.708357 31.5317101,46.2774451 31.0087097,45.5622222 L0.782258065,4.48888889 C0.139893835,3.25351324 0.478502202,1.7308432 1.5824941,0.890349811 C2.686486,0.049856423 4.2315136,0.138472855 5.23387097,1.09977778 L33.2567742,39.1655556 L61.9474194,1.12222222 C62.9084788,-0.0478701607 64.614656,-0.24315313 65.8113352,0.679972161 C67.0080145,1.60309745 67.267522,3.31472101 66.3990323,4.55622222 L35.4825806,45.6071111 C34.9456422,46.3116067 34.1156501,46.7259345 33.2345161,46.7293333 Z" id="Path"></path>
                </g>
            </g>
        </g>
    </g>
</svg>