<?xml version="1.0" encoding="UTF-8"?>
<svg width="100px" height="92px" viewBox="0 0 100 92" version="1.1" xmlns="http://www.w3.org/2000/svg" xmlns:xlink="http://www.w3.org/1999/xlink">
    <!-- Generator: Sketch 55.2 (78181) - https://sketchapp.com -->
    <title>react1</title>
    <desc>Created with Sketch.</desc>
    <g id="Page-2" stroke="none" stroke-width="1" fill="none" fill-rule="evenodd">
        <g id="Wireframe" transform="translate(-555.000000, -1286.000000)" fill="#61DAFB" fill-rule="nonzero">
            <g id="react1" transform="translate(555.000000, 1286.000000)">
                <path d="M50,36.9748333 C45.078125,36.9748333 41.0875,41.071875 41.0875,46.125 C41.0875,51.178125 45.078125,55.2751667 50,55.2751667 L50,55.2751667 C54.921875,55.2751667 58.9125,51.178125 58.9125,46.125 C58.9125,41.071875 54.921875,36.9748333 50,36.9748333 L50,36.9748333 Z M25.034375,64.325875 L23.06875,63.8125417 C8.409375,60.0106667 0.003125,53.5555 0.003125,46.10575 C0.003125,38.656 8.4125,32.2040417 23.06875,28.3989583 L25.034375,27.8888333 L25.5875,29.8908333 C27.290625,35.8583333 29.221875,40.937125 31.521875,45.7945417 L31.265625,45.1977917 L31.6875,46.1089583 L31.265625,47.020125 C29.215625,51.284 27.28125,56.3627917 25.7625,61.62125 L25.5875,62.3270833 L25.034375,64.325875 Z M22.153125,33.0767083 C11.0125,36.28825 4.175,41.2034167 4.175,46.10575 C4.175,51.004875 11.0125,55.9200417 22.153125,59.1347917 C23.753125,53.9372917 25.421875,49.6220833 27.346875,45.4576667 L27.078125,46.10575 C25.41875,42.583 23.746875,38.2677917 22.35625,33.82425 L22.153125,33.0735 L22.153125,33.0767083 Z M74.965625,64.325875 L74.4125,62.3206667 C72.7125,56.356375 70.78125,51.2807917 68.475,46.4265833 L68.728125,47.0169167 L68.30625,46.10575 L68.728125,45.1945833 C70.778125,40.9307083 72.7125,35.855125 74.234375,30.5966667 L74.409375,29.887625 L74.9625,27.885625 L76.934375,28.39575 C91.5875,32.197625 99.996875,38.6527917 99.996875,46.10575 C99.996875,53.5587083 91.5875,60.0074583 76.934375,63.8125417 L74.965625,64.325875 Z M72.921875,46.1089583 C74.921875,50.5525 76.575,54.92225 77.846875,59.138 C88.99375,55.9200417 95.825,51.004875 95.825,46.1089583 C95.825,41.206625 88.9875,36.2946667 77.846875,33.0799167 C76.25,38.2742083 74.58125,42.5862083 72.653125,46.7538333 L72.921875,46.1121667 L72.921875,46.1089583 Z M22.125,33.0574583 L21.571875,31.0586667 C17.45,16.1463333 18.7,5.459375 25,1.73129167 C31.178125,-1.92941667 41.1,2.39541667 51.496875,13.3486667 L52.9125,14.8405417 L51.496875,16.3324167 C47.915625,20.1503333 44.6,24.2955 41.615625,28.694125 L41.403125,29.0245833 L40.840625,29.849125 L39.8625,29.93575 C34.003125,30.4202083 28.625,31.3442083 23.4125,32.6949167 L24.09375,32.544125 L22.125,33.0574583 Z M30.025,4.69579167 C28.909375,4.69579167 27.921875,4.94283333 27.0875,5.43691667 C22.946875,7.88808333 22.2125,16.4094167 25.065625,27.9080833 C28.846875,26.9937083 33.44375,26.2365417 38.128125,25.797 L38.5375,25.7649167 C41.33125,21.7095833 44.1375,18.1611667 47.15,14.8116667 L47.0875,14.88225 C40.5875,8.385375 34.434375,4.69579167 30.025,4.69579167 Z M69.978125,91.7988333 C69.975,91.7988333 69.975,91.7988333 69.978125,91.7988333 C64.040625,91.7988333 56.415625,87.2077083 48.503125,78.8660417 L47.0875,77.3741667 L48.503125,75.8822917 C52.084375,72.064375 55.396875,67.9192083 58.378125,63.517375 L58.590625,63.1869167 L59.153125,62.362375 L60.128125,62.27575 C65.9875,61.7945 71.36875,60.8705 76.5875,59.523 L75.90625,59.6705833 L77.871875,59.1604583 L78.43125,61.1624583 C82.54375,76.0651667 81.296875,86.7553333 74.996875,90.4834167 C73.59375,91.314375 71.909375,91.8020417 70.115625,91.8020417 C70.065625,91.8020417 70.01875,91.8020417 69.96875,91.8020417 L69.975,91.8020417 L69.978125,91.7988333 Z M52.9125,77.3356667 C59.4125,83.8325417 65.565625,87.522125 69.975,87.522125 L69.978125,87.522125 C71.090625,87.522125 72.08125,87.2750833 72.9125,86.781 C77.053125,84.3298333 77.790625,75.8052917 74.934375,64.306625 C71.146875,65.2242083 66.553125,65.981375 61.865625,66.4177083 L61.459375,66.4497917 C58.66875,70.5083333 55.8625,74.05675 52.85,77.4094583 L52.9125,77.338875 L52.9125,77.3356667 Z M77.875,33.0574583 L75.909375,32.5473333 C71.36875,31.341 65.9875,30.417 60.475,29.9614167 L60.128125,29.9389583 L59.153125,29.8523333 L58.590625,29.0277917 C55.4,24.2987083 52.084375,20.1535417 48.475,16.3035417 L48.503125,16.335625 L47.0875,14.84375 L48.503125,13.351875 C58.89375,2.40183333 68.8125,-1.923 75,1.7345 C81.3,5.46579167 82.55,16.1495417 78.434375,31.0586667 L77.875,33.0574583 Z M61.459375,25.7617083 C66.21875,26.2076667 70.7375,26.9295417 74.934375,27.904875 C77.79375,16.4062083 77.05625,7.884875 72.9125,5.43370833 C68.796875,2.99216667 61.059375,6.73308333 52.9125,14.8790417 C55.859375,18.1579583 58.665625,21.706375 61.24375,25.43125 L61.459375,25.7617083 Z M30.025,91.7988333 C29.98125,91.7988333 29.93125,91.7988333 29.88125,91.7988333 C28.0875,91.7988333 26.403125,91.3111667 24.953125,90.4545417 L25,90.4802083 C18.7,86.7553333 17.45,76.068375 21.571875,61.15925 L22.121875,59.15725 L24.0875,59.667375 C28.9,60.9122083 34.209375,61.7880833 39.859375,62.2725417 L40.8375,62.3591667 L41.396875,63.1837083 C44.590625,67.916 47.90625,72.0611667 51.51875,75.9111667 L51.4875,75.8790833 L52.903125,77.3709583 L51.4875,78.8628333 C43.578125,87.2045 35.953125,91.795625 30.025,91.795625 L30.025,91.7988333 Z M25.065625,64.306625 C22.20625,75.8052917 22.94375,84.3298333 27.0875,86.781 C31.2,89.1904583 38.934375,85.4752083 47.0875,77.3356667 C44.140625,74.05675 41.334375,70.505125 38.753125,66.78025 L38.5375,66.4497917 C33.446875,65.981375 28.853125,65.2242083 24.36875,64.1686667 L25.06875,64.306625 L25.065625,64.306625 Z M50,66.992 C46.571875,66.992 43.046875,66.838 39.515625,66.539625 L38.5375,66.453 L37.975,65.6284583 C36.275,63.1644583 34.415625,60.2031667 32.671875,57.1616667 L32.35,56.5520833 C30.9375,54.1201667 29.315625,50.99525 27.81875,47.79975 L27.490625,47.020125 L27.075,46.1089583 L27.490625,45.1977917 C29.315625,41.2226667 30.934375,38.1009583 32.671875,35.05625 L32.35,35.6690417 C34.075,32.6050833 35.971875,29.55075 37.975,26.5926667 L38.5375,25.768125 L39.515625,25.6815 C42.65625,25.39275 46.309375,25.2259167 50,25.2259167 C53.690625,25.2259167 57.34375,25.39275 60.953125,25.7167917 L60.484375,25.6815 L61.459375,25.768125 L62.01875,26.5926667 C65.696875,31.93775 69.1875,38.0367917 72.18125,44.431 L72.50625,45.201 L72.928125,46.1121667 L72.50625,47.0233333 C69.2,54.1843333 65.70625,60.283375 61.759375,66.0327083 L62.01875,65.6316667 L61.459375,66.4562083 L60.484375,66.5428333 C56.95625,66.8412083 53.425,66.9952083 49.996875,66.9952083 L50,66.992 Z M40.846875,62.3559583 C47.0125,62.8307917 52.9875,62.8307917 59.159375,62.3559583 C62.296875,57.7199167 65.340625,52.3972917 67.99375,46.8404583 L68.309375,46.1089583 C65.35,39.8270417 62.303125,34.5044167 58.896875,29.4577083 L59.15625,29.8619583 C56.415625,29.6341667 53.225,29.5058333 50.003125,29.5058333 C46.78125,29.5058333 43.590625,29.6341667 40.43125,29.887625 L40.85,29.8619583 C37.7,34.5044167 34.653125,39.8270417 32.00625,45.3902917 L31.696875,46.1089583 C34.66875,52.3972917 37.715625,57.7199167 41.115625,62.7698333 L40.85,62.35275 L40.846875,62.3559583 Z" id="Shape"></path>
            </g>
        </g>
    </g>
</svg>