<?xml version="1.0" encoding="UTF-8"?>
<svg width="100px" height="98px" viewBox="0 0 100 100"  fill="#764ABC"  version="1.1" xmlns="http://www.w3.org/2000/svg" xmlns:xlink="http://www.w3.org/1999/xlink">
    <title>redux</title>
                <path d="M69.303125,70.4847656 C72.925,70.1644531 75.73125,66.8972656 75.55,62.9926562 C75.359375,59.0880469 72.2375,55.9553906 68.434375,55.9553906 L68.18125,55.9553906 C64.253125,56.0867187 61.190625,59.475625 61.315625,63.5115625 C61.440625,65.5583594 62.25625,67.2239844 63.375,68.4347656 C59.009375,77.1376562 52.453125,83.5375 42.525,88.9123437 C35.846875,92.4902344 28.790625,93.8419531 21.925,92.8810156 C16.184375,92.0514062 11.690625,89.4216406 8.940625,85.203125 C4.825,78.8000781 4.45,71.8941406 7.878125,64.985 C10.38125,59.9913281 14.125,56.3461719 16.625,54.5524219 C16,52.89 15.25,50.0776562 14.875,47.9667969 C-3.609375,61.5352344 -1.728125,80.0877344 3.8875,88.8546875 C8.071875,95.2513281 16.625,99.3449219 25.9875,99.3449219 C28.484375,99.3449219 31.109375,99.1559375 33.665625,98.5153125 C49.9,95.3153906 62.19375,85.3344531 69.25,70.6192969 L69.303125,70.4847656 Z M91.5875,54.4883594 C81.915625,42.8417969 67.678125,36.4451562 51.446875,36.4451562 L49.321875,36.4451562 C48.26875,34.0780469 45.834375,32.6046094 43.084375,32.6046094 L42.896875,32.6046094 C38.96875,32.6046094 35.90625,36.0639844 36.034375,40.0903125 C36.159375,43.9244531 39.34375,47.1275781 43.15,47.1275781 L43.459375,47.1275781 C46.271875,46.9994531 48.70625,45.2057031 49.7,42.6464062 L52.0125,42.6464062 C61.634375,42.6464062 70.740625,45.5260156 79.046875,51.1539062 C85.409375,55.4428906 89.971875,61.0707812 92.53125,67.7941406 C94.771875,73.2939062 94.653125,78.6719531 92.34375,83.1563281 C88.784375,90.1903906 82.790625,93.9060156 74.865625,93.9060156 C69.86875,93.9060156 65.003125,92.3044531 62.503125,91.1545312 C61.00625,92.4261719 58.50625,94.5402344 56.69375,95.8214844 C62.184375,98.374375 67.74375,99.8478125 73.109375,99.8478125 C85.284375,99.8478125 94.33125,92.81375 97.76875,86.0263281 C101.509375,78.3484375 101.203125,65.4238281 91.646875,54.3538281 L91.5875,54.4883594 Z M27.040625,72.7846094 C27.1625,76.6251562 30.34375,79.821875 34.15625,79.821875 L34.40625,79.821875 C38.403125,79.69375 41.459375,76.3080469 41.271875,72.2721094 C41.271875,68.4315625 38.025,65.2380469 34.21875,65.2380469 L33.965625,65.2380469 C33.715625,65.2380469 33.34375,65.2380469 33.028125,65.3629687 C27.85,56.4038281 25.6625,46.8008594 26.478125,36.4451562 C26.975,28.6391406 29.475,21.8517187 33.965625,16.2238281 C37.7125,11.4223437 44.765625,9.05203125 49.575,8.9303125 C63.059375,8.67085937 68.678125,25.8908594 69.1125,32.7359375 L75.353125,34.6546094 C73.915625,13.6677344 61.1875,2.65859375 49.0125,2.65859375 C37.5875,2.65859375 27.040625,11.1692969 22.790625,23.6486719 C16.9875,40.2889062 20.79375,56.2821094 27.9125,69.0817969 C27.290625,69.9146094 26.915625,71.3848437 27.040625,72.7878125 L27.040625,72.7846094 Z" id="Shape"></path>
</svg>