<?xml version="1.0" encoding="UTF-8"?>
<svg width="100px" height="103px" viewBox="0 0 100 103" version="1.1" fill="#CC6699" xmlns="http://www.w3.org/2000/svg" xmlns:xlink="http://www.w3.org/1999/xlink">
    <!-- Generator: Sketch 55.2 (78181) - https://sketchapp.com -->
    <title>sass</title>
                <path d="M50,0 C77.6125,0 100,22.9471875 100,51.25 C100,79.5528125 77.6125,102.5 50,102.5 C22.3875,102.5 0,79.5528125 0,51.25 C0,22.9471875 22.3875,0 50,0 Z M40.0625,68.3258594 C40.790625,71.0805469 40.7125,73.6558594 39.9625,75.978125 L39.690625,76.746875 C39.590625,77.0063281 39.475,77.259375 39.365625,77.4996094 C38.78125,78.7392188 38.00625,79.8923438 37.053125,80.9589844 C34.14375,84.2005469 30.0875,85.4305469 28.34375,84.3959375 C26.46875,83.2780469 27.403125,78.694375 30.778125,75.0428125 C34.40625,71.1221875 39.6125,68.598125 39.6125,68.598125 L39.6125,68.5853125 L40.0625,68.3258594 Z M81.359375,21.9382031 C79.1,12.8285156 64.371875,9.83359375 50.434375,14.91375 C42.146875,17.9342969 33.16875,22.678125 26.7125,28.8665625 C19.034375,36.2177344 17.8125,42.6239844 18.315625,45.3017969 C20.09375,54.7446094 32.71875,60.9202344 37.9125,65.5039063 L37.9125,65.5295313 C36.384375,66.2982813 25.178125,72.0607031 22.553125,78.0217188 C19.740625,84.2998438 22.990625,88.7874219 25.115625,89.3607813 C31.678125,91.2217969 38.428125,87.8232813 42.053125,82.3171094 C45.553125,76.9326562 45.24375,70.0139062 43.7375,66.6185938 C45.803125,66.0420313 48.2375,65.7857812 51.3625,66.1733594 C60.115625,67.1983594 61.865625,72.8358594 61.4875,75.1421094 C61.1125,77.4451563 59.309375,78.7904688 58.678125,79.1748438 C58.053125,79.5624219 57.865625,79.6873438 57.925,79.9467969 C57.9875,80.3311719 58.303125,80.3311719 58.8,80.2671094 C59.4875,80.1389844 63.365625,78.3452344 63.553125,73.9857813 C63.740625,68.4764063 58.6125,62.3296094 49.490625,62.4545313 C45.740625,62.5217969 43.3625,62.8421094 41.678125,63.5467969 C41.553125,63.3546094 41.425,63.2264844 41.240625,63.0983594 C35.615625,56.8842969 25.178125,52.5280469 25.615625,44.2639844 C25.740625,41.2530469 26.803125,33.3125 45.615625,23.703125 C61.053125,15.8202344 73.36875,18.0015625 75.49375,22.80625 C78.546875,29.6577344 68.928125,42.409375 52.865625,44.2639844 C46.740625,44.9686719 43.553125,42.5375 42.7375,41.6374219 C41.865625,40.6764844 41.740625,40.6124219 41.428125,40.8078125 C40.928125,41.0640625 41.240625,41.896875 41.428125,42.409375 C41.928125,43.690625 43.865625,45.9328125 47.24375,47.0859375 C50.178125,48.046875 57.36875,48.6202344 65.99375,45.1640625 C75.678125,41.3235156 83.240625,30.621875 81.053125,21.653125 L81.359375,21.9382031 Z" id="Shape"></path>
</svg>