<svg height="114" viewBox="0 0 100 114" width="100" xmlns="http://www.w3.org/2000/svg"><path d="m96.92607 87.8074237-44.9533074 26.1166273v-20.3441543l28.0077821-15.8241229zm3.07393-2.8581369v-54.621725l-16.4513619 9.750582v35.1085182zm-96.92607004 2.8581369 44.95330744 26.1166273v-20.3441543l-28.0077821-15.8241229zm-3.07392996-2.8581369v-54.621725l16.4513619 9.750582v35.1085182zm1.92217899-58.158268 46.10505841-26.7910188v19.6697621l-29.762646 16.8196537zm96.15564201 0-46.1050584-26.7910188v19.6697621l29.762646 16.8196537zm-50.0505836 62.1644767-27.6342413-15.6033399v-30.9216688l27.6303502 16.3901303zm3.9455252 0 27.6303502-15.6033399v-30.9216688l-27.6303502 16.3901303zm-29.7081712-50.101694 27.7392997-15.6715819 27.7392996 15.6715819-27.7392996 16.4543581z" fill="#8dd6f9"/></svg>